# xmcd
#
# Track frame offsets:
#	150
#	12488
#	24745
#	38053
#	50773
#	62765
#	75105
#	85983
#	99500
#	114745
#	125798
#	135525
#	148395
#	158755
#
# Disc length: 2292 seconds
#
# Revision: 0
# Processed by: cddbd v1.5PL3 Copyright (c) Steve Scherf et al.
# Submitted via: dBpowerAMP V4.0
#
DISCID=c008f20e
DTITLE=Various Artist - Country Western Legends
DYEAR=1900
DGENRE=Country
TTITLE0=Sons Of The Pioneers - Tumbling Tumbleweeds
TTITLE1=Eddy Arnold - Cattle Call
TTITLE2=Vaughn Monroe - Riders In The Sky (A Cowboy Ledgend)
TTITLE3=Roy Rogers And The Sons Of The Pioneers - Blue Shadows On The Trail
TTITLE4=Dale Evans - Don't Ever Fall In Love With A Cowboy
TTITLE5=Montana Slim - When It's Springtime In The Rockies
TTITLE6=Elton Britt - Give Me A Pinto Pal
TTITLE7=Pee Wee King - Slow Poke
TTITLE8=Jimmie Rodgers - Blue Yodel No. 1 (T For Texas)
TTITLE9=Rosalie Allen - Wide Rollin' Plains
TTITLE10=Lorne Greene - Mule Train
TTITLE11=Slim Whitman - Birmingham Jail
TTITLE12=Harry Mc Clintock - The Big Rock Candy Mountains
TTITLE13=Roy Rogers And Dale Evans - Happy Trails
EXTD=Al Gardner
EXTT0=
EXTT1=
EXTT2=
EXTT3=
EXTT4=
EXTT5=
EXTT6=
EXTT7=
EXTT8=
EXTT9=
EXTT10=
EXTT11=
EXTT12=
EXTT13=
PLAYORDER=
